# Blender 4.4.3
# www.blender.org
o Cube.001
v -1.140655 0.064918 1.806058
v -1.140655 0.308654 1.806058
v -1.140655 0.064918 1.562321
v -1.140655 0.308654 1.562321
v 0.313304 -0.274994 2.301157
v 0.411797 0.254373 2.301157
v 0.313304 -0.274994 1.067222
v 0.411797 0.254373 1.067222
v -0.369142 -0.180840 1.383883
v -0.369142 0.234979 1.383883
v -0.369142 -0.180840 1.984496
v -0.369142 0.234979 1.984496
v -0.584454 -0.132075 2.384945
v -0.584454 -0.059397 2.384945
v -0.354401 -0.081365 2.438153
v -0.354401 -0.205356 2.438153
v -0.637479 -0.132075 2.614210
v -0.637479 -0.059397 2.614210
v -0.407426 -0.081365 2.667417
v -0.407426 -0.250382 2.667417
v -0.580319 -0.132075 2.789203
v -0.580319 -0.059397 2.789203
v -0.350266 -0.081365 2.842411
v -0.350266 -0.250382 2.842411
v -0.455489 -0.344842 2.683117
v -0.398329 -0.344842 2.858110
v -0.455489 -0.344842 2.683117
v -0.637479 -0.132075 2.614210
v -0.564076 -0.289514 2.654410
v -0.545669 -0.211636 2.629188
v -0.580319 -0.132075 2.789203
v -0.398329 -0.344842 2.858110
v -0.488510 -0.211636 2.804181
v -0.506917 -0.289514 2.829403
v -0.244813 -0.403384 2.807965
v -0.301972 -0.403384 2.632972
v -0.407426 -0.250382 2.667417
v -0.301972 -0.403384 2.632972
v -0.337107 -0.279428 2.644448
v -0.298508 -0.335430 2.631840
v -0.244813 -0.403384 2.807965
v -0.350266 -0.250382 2.842411
v -0.241348 -0.335430 2.806834
v -0.279947 -0.279428 2.819442
v -0.173123 0.211388 1.669587
v -0.173123 0.347621 1.737703
v 0.000000 0.223358 1.535822
v -0.379108 0.211388 1.737703
v 0.251878 0.223358 1.603938
v -0.173123 0.211388 1.805820
v 0.000000 0.223358 1.672055
v 0.032863 0.211388 1.737703
v -0.251878 0.223358 1.603938
v 0.000000 0.359591 1.603938
v -0.334844 0.208701 1.669587
v -0.334844 0.344934 1.737703
v -0.585282 0.208701 1.737703
v -0.334844 0.208701 1.805820
v -0.084406 0.208701 1.737703
v -0.475965 0.238152 1.418560
v -0.475965 0.374385 1.486676
v -0.591497 0.238152 1.486676
v -0.475965 0.238152 1.554793
v -0.360434 0.238152 1.486676
v -0.615003 0.238152 1.669587
v -0.615003 0.374385 1.737703
v -0.683119 0.238152 1.737703
v -0.615003 0.238152 1.805820
v -0.546886 0.238152 1.737703
v -0.749988 0.238152 1.669587
v -0.749988 0.374385 1.737703
v -0.818104 0.238152 1.737703
v -0.749988 0.238152 1.805820
v -0.681871 0.238152 1.737703
v -0.976356 0.215374 1.523486
v -0.976356 0.351606 1.591602
v -1.044473 0.215374 1.591602
v -0.976356 0.215374 1.659719
v -0.908240 0.215374 1.591602
v -0.870656 0.238152 1.669587
v -0.870656 0.374385 1.737703
v -0.938772 0.238152 1.737703
v -0.870656 0.238152 1.805820
v -0.802539 0.238152 1.737703
v -1.082111 0.238152 1.611952
v -1.082111 0.374385 1.680068
v -1.150227 0.238152 1.680068
v -1.082111 0.238152 1.748185
v -1.013994 0.238152 1.680068
vn -1.0000 -0.0000 -0.0000
vn -0.3951 0.0412 -0.9177
vn 0.9831 -0.1829 -0.0000
vn -0.0542 0.8182 0.5723
vn -0.1367 -0.9906 -0.0000
vn 0.0951 0.9955 -0.0000
vn -0.0248 0.9997 -0.0000
vn -0.3035 -0.9528 -0.0000
vn -0.3951 0.0412 0.9177
vn -0.2253 -0.0000 -0.9743
vn -0.3449 -0.9230 -0.1704
vn 0.9995 -0.0000 -0.0325
vn -0.2944 -0.9548 -0.0420
vn -0.7211 -0.0000 0.6928
vn 0.9506 -0.0000 -0.3105
vn -0.9743 -0.0000 -0.2253
vn 0.9743 -0.0000 0.2253
vn 0.0903 0.9957 0.0209
vn -0.2253 -0.0000 0.9743
vn 0.1027 0.9941 -0.0335
vn 0.3105 -0.0000 0.9506
vn -0.9506 -0.0000 0.3105
vn -0.0000 1.0000 -0.0000
vn -0.1912 0.1770 0.9655
vn -0.6594 -0.7203 0.2154
vn -0.9040 0.3093 0.2953
vn -0.4810 -0.8625 0.1571
vn 0.1912 -0.1770 -0.9655
vn -0.3105 -0.0000 -0.9506
vn -0.3239 -0.9401 0.1058
vn 0.9492 -0.0536 -0.3101
vn 0.7696 0.5870 -0.2514
vn 0.3474 0.9308 -0.1135
vn -0.0000 -1.0000 -0.0000
vn 0.2351 0.4347 -0.8694
vn -0.2836 0.4288 0.8577
vn -0.2836 0.4288 -0.8577
vn 0.2351 0.4347 0.8694
vn 0.2836 0.4288 -0.8577
vn -0.2351 0.4347 0.8694
vn 0.2836 0.4288 0.8577
vn -0.2364 0.4345 0.8691
vn -0.2351 0.4347 -0.8694
vn -0.2364 0.4345 -0.8691
vn 0.2364 0.4345 -0.8691
vn 0.2364 0.4345 0.8691
vn -0.4665 0.3956 0.7912
vn -0.4665 0.3956 -0.7912
vn 0.4665 0.3956 -0.7912
vn 0.4665 0.3956 0.7912
vn -0.6667 0.3333 0.6667
vn -0.6667 0.3333 -0.6667
vn 0.6667 0.3333 -0.6667
vn 0.6667 0.3333 0.6667
vt 0.840198 0.580442
vt 0.775426 0.549067
vt 0.775426 0.506501
vt 0.840198 0.537876
vt 0.581996 0.768043
vt 0.459573 0.764258
vt 0.451471 0.506501
vt 0.610962 0.537781
vt 0.610962 0.506501
vt 0.775426 0.508463
vt 0.775426 0.887369
vt 0.610962 0.885407
vt 0.196446 0.210908
vt 0.071585 -0.000000
vt 0.295123 0.122196
vt 0.332354 0.185086
vt 0.823877 0.274169
vt 0.849271 0.506501
vt 0.488457 0.386119
vt 0.648252 0.215573
vt 0.020047 0.266934
vt 0.000000 0.022736
vt -0.000000 0.523182
vt 0.362405 0.408079
vt 0.849271 0.023779
vt 0.778000 0.000000
vt 0.160755 0.753922
vt -0.000000 0.780040
vt 0.016857 0.523182
vt 0.139640 0.523182
vt 0.523231 1.000000
vt 0.451471 0.997781
vt 0.552578 0.112233
vt 0.513889 0.176514
vt 0.451471 0.140469
vt 0.490676 0.074491
vt 0.160755 0.537134
vt 0.288021 0.523182
vt 0.206052 0.672707
vt 0.168103 0.676868
vt 0.805663 0.828694
vt 0.786349 0.819339
vt 0.160755 0.747052
vt 0.212485 0.741381
vt 0.219126 0.796265
vt 0.167397 0.801936
vt 0.897096 0.499134
vt 0.876693 0.505615
vt 0.876693 0.453842
vt 0.897096 0.447360
vt 0.357498 0.085366
vt 0.394730 0.148255
vt 0.337694 0.640573
vt 0.288021 0.635740
vt 0.294583 0.566683
vt 0.315942 0.568762
vt 0.414239 0.085691
vt 0.451471 0.148580
vt 0.369798 0.633371
vt 0.373130 0.666678
vt 0.352846 0.665449
vt 0.339875 0.655894
vt 0.288021 0.523182
vt 0.309381 0.525260
vt 0.333751 0.597320
vt 0.359465 0.598901
vt 0.419298 0.655881
vt 0.419298 0.599171
vt 0.447582 0.613112
vt 0.447582 0.669822
vt 0.327189 0.553819
vt 0.352903 0.555400
vt 0.419298 0.579892
vt 0.419298 0.523182
vt 0.450241 0.542461
vt 0.450241 0.599171
vt 0.367233 0.666678
vt 0.366380 0.723738
vt 0.334141 0.719195
vt 0.334323 0.692928
vt 0.357799 0.693767
vt 0.367233 0.747176
vt 0.356609 0.764063
vt 0.337353 0.769874
vt 0.092039 0.836750
vt 0.092039 0.780040
vt 0.143659 0.780470
vt 0.143659 0.837180
vt 0.373130 0.797503
vt 0.373130 0.852787
vt 0.352153 0.852805
vt 0.352153 0.797521
vt 0.335533 0.849791
vt 0.335533 0.794507
vt 0.419298 0.726648
vt 0.419298 0.669906
vt 0.443042 0.669822
vt 0.443042 0.726564
vt 0.889104 0.200775
vt 0.889104 0.267168
vt 0.849271 0.214074
vt 0.849271 0.147681
vt 0.889765 0.068279
vt 0.889765 0.147681
vt 0.849271 0.079402
vt 0.849271 -0.000000
vt 0.419298 0.581207
vt 0.373130 0.588113
vt 0.406979 0.523182
vt 0.046043 0.824779
vt 0.092039 0.832613
vt 0.046043 0.890237
vt 0.046043 0.891116
vt -0.000000 0.833166
vt 0.046043 0.825472
vt 0.300062 0.666678
vt 0.334141 0.730965
vt 0.288021 0.723903
vt 0.034068 0.780040
vt 0.880709 0.709456
vt 0.880709 0.789283
vt 0.840198 0.720520
vt 0.840198 0.640693
vt 0.288021 0.801647
vt 0.057739 0.780040
vt 0.840198 0.563335
vt 0.886315 0.570418
vt 0.419298 0.659236
vt 0.419295 0.794507
vt 0.373130 0.723793
vt 0.419295 0.716866
vt 0.406985 0.659236
vt 0.852230 0.506501
vt 0.196846 0.821564
vt 0.196846 0.862663
vt 0.160755 0.843035
vt 0.160755 0.801936
vt 0.293319 0.823494
vt 0.334546 0.801647
vt 0.320523 0.854626
vt 0.386618 0.847697
vt 0.373130 0.794507
vt 0.414125 0.816837
vt 0.419741 0.794507
vt 0.288021 0.801647
vt 0.402695 0.847697
vt 0.402695 0.877277
vt 0.373130 0.877520
vt 0.373130 0.847940
vt 0.419741 0.841164
vt 0.419741 0.794507
vt 0.447257 0.832507
vt 0.419741 0.879200
vt 0.447163 0.841164
vt 0.447163 0.887846
vt 0.196846 0.848727
vt 0.196846 0.801936
vt 0.216791 0.837727
vt 0.234346 0.830187
vt 0.226412 0.848727
vt 0.226412 0.878307
vt 0.196846 0.878550
vt 0.196846 0.848971
vt 0.849271 0.311674
vt 0.863273 0.267168
vt 0.878117 0.311674
vt 0.129411 0.875216
vt 0.156833 0.837180
vt 0.156833 0.883862
vt 0.234346 0.848727
vt 0.234346 0.801936
vt 0.254291 0.837727
vt 0.271847 0.830187
vt 0.285543 0.848727
vt 0.285543 0.878307
vt 0.255977 0.878550
vt 0.255977 0.848971
vt 0.849271 0.402839
vt 0.849271 0.356181
vt 0.876787 0.394182
vt 0.849271 0.447360
vt 0.863986 0.402839
vt 0.878023 0.447360
vt 0.092038 0.865335
vt 0.129411 0.837180
vt 0.112825 0.874646
vt 0.129411 0.884131
vt 0.255977 0.848727
vt 0.255977 0.878307
vt 0.226412 0.878550
vt 0.226412 0.848971
vt 0.419298 0.773306
vt 0.419298 0.726648
vt 0.446815 0.764649
vt 0.849271 0.485396
vt 0.876693 0.447360
vt 0.876693 0.494042
vt 0.775426 0.870639
vt 0.796164 0.828694
vt 0.798181 0.869618
vt 0.817260 0.870639
vt 0.869763 0.789283
vt 0.869763 0.818862
vt 0.840198 0.819106
vt 0.840198 0.789526
vt 0.849271 0.356181
vt 0.863273 0.311674
vt 0.878117 0.356181
vt 0.854632 0.866730
vt 0.882054 0.828694
vt 0.882054 0.875376
vt 0.817259 0.856849
vt 0.854632 0.828694
vt 0.838046 0.866161
vt 0.854632 0.875645
s 0
f 1/1/1 2/2/1 4/3/1 3/4/1
f 9/5/2 10/6/2 8/7/2 7/8/2
f 7/9/3 8/10/3 6/11/3 5/12/3
f 12/13/4 2/14/4 14/15/4 15/16/4
f 9/17/5 7/18/5 5/19/5 11/20/5
f 10/21/6 4/22/6 2/14/6 12/13/6
f 8/23/7 10/21/7 12/13/7 6/24/7
f 3/25/8 9/17/8 11/20/8 1/26/8
f 5/27/9 6/28/9 12/29/9 11/30/9
f 3/31/10 4/32/10 10/6/10 9/5/10
f 13/33/11 16/34/11 20/35/11 17/36/11
f 11/37/12 12/38/12 15/39/12 16/40/12
f 1/26/13 11/20/13 16/34/13 13/33/13
f 2/2/14 1/1/14 13/41/14 14/42/14
f 20/43/15 19/44/15 23/45/15 24/46/15
f 14/47/16 13/48/16 17/49/16 18/50/16
f 16/40/17 15/39/17 19/44/17 20/43/17
f 15/16/18 14/15/18 18/51/18 19/52/18
f 24/53/19 23/54/19 22/55/19 21/56/19
f 19/52/20 18/51/20 22/57/20 23/58/20
f 24/53/21 26/59/21 35/60/21 41/60/21 43/61/21 44/62/21 42/53/21
f 18/63/22 17/64/22 21/56/22 22/55/22
f 21/38/23 17/38/23 28/38/23 31/38/23
f 24/53/24 21/56/24 31/56/24 33/65/24 34/66/24 32/59/24 26/59/24
f 27/38/23 25/38/23 26/38/23 32/38/23
f 38/38/23 41/38/23 35/38/23 36/38/23
f 31/67/25 28/68/25 30/69/25 33/70/25
f 33/65/26 30/71/26 29/72/26 34/66/26
f 34/73/27 29/74/27 27/75/27 32/76/27
f 17/77/28 20/78/28 25/79/28 27/79/28 29/80/28 30/81/28 28/77/28
f 25/79/29 20/78/29 37/78/29 39/82/29 40/83/29 38/84/29 36/84/29
f 26/85/30 25/86/30 36/87/30 35/88/30
f 41/89/31 38/90/31 40/91/31 43/92/31
f 43/92/32 40/91/32 39/93/32 44/94/32
f 44/95/33 39/96/33 37/97/33 42/98/33
f 20/38/23 24/38/23 42/38/23 37/38/23
f 45/99/34 52/100/34 50/101/34 48/102/34
f 55/103/34 59/104/34 58/105/34 57/106/34
f 47/107/35 54/108/35 49/109/35
f 50/110/36 46/111/36 48/112/36
f 48/113/37 46/114/37 45/115/37
f 49/116/38 54/117/38 51/118/38
f 45/115/39 46/114/39 52/119/39
f 47/120/34 49/121/34 51/122/34 53/123/34
f 51/118/40 54/117/40 53/124/40
f 52/125/41 46/111/41 50/110/41
f 58/126/42 56/127/42 57/123/42
f 53/128/43 54/108/43 47/107/43
f 57/129/44 56/130/44 55/131/44
f 55/131/45 56/130/45 59/132/45
f 59/133/46 56/127/46 58/126/46
f 60/134/34 64/135/34 63/136/34 62/137/34
f 63/138/47 61/139/47 62/140/47
f 62/141/48 61/142/48 60/143/48
f 60/143/49 61/142/49 64/144/49
f 64/145/50 61/139/50 63/138/50
f 65/146/34 69/147/34 68/148/34 67/149/34
f 68/150/51 66/151/51 67/152/51
f 67/153/52 66/154/52 65/155/52
f 65/156/53 66/157/53 69/158/53
f 69/158/54 66/157/54 68/159/54
f 70/160/34 74/161/34 73/162/34 72/163/34
f 73/164/51 71/165/51 72/166/51
f 72/167/52 71/168/52 70/169/52
f 70/170/53 71/171/53 74/172/53
f 74/172/54 71/171/54 73/173/54
f 75/174/34 79/175/34 78/176/34 77/177/34
f 78/178/51 76/179/51 77/180/51
f 77/181/52 76/182/52 75/183/52
f 75/184/53 76/185/53 79/186/53
f 79/186/54 76/185/54 78/187/54
f 80/188/34 84/189/34 83/190/34 82/191/34
f 83/192/51 81/193/51 82/194/51
f 82/195/52 81/196/52 80/197/52
f 80/198/53 81/199/53 84/200/53
f 84/200/54 81/199/54 83/201/54
f 85/202/34 89/203/34 88/204/34 87/205/34
f 88/206/51 86/207/51 87/208/51
f 87/209/52 86/210/52 85/211/52
f 85/212/53 86/213/53 89/214/53
f 89/214/54 86/213/54 88/215/54
