# Blender 4.4.3
# www.blender.org
o Cube
v 1.462875 0.240759 -1.971586
v 0.540685 -0.390452 -1.971586
v 1.462875 0.240759 -1.507544
v 0.540685 -0.390452 -1.507544
v -1.139270 0.278680 -0.153015
v -1.000000 -0.112674 -0.153015
v -1.139270 0.278680 0.153015
v -1.000000 -0.112674 0.153015
v -1.723279 1.031052 -0.034006
v -1.723279 1.031052 0.034006
v -1.655884 1.021919 0.034006
v -1.655884 1.021919 -0.034006
v -1.579455 0.521007 0.153015
v -1.699582 0.776087 0.104351
v -1.858576 0.490896 0.153015
v -1.650583 0.586300 0.146495
v -1.694553 0.679666 0.128683
v -1.699582 0.776087 -0.104351
v -1.579455 0.521007 -0.153015
v -1.858576 0.490896 -0.153015
v -1.694553 0.679666 -0.128683
v -1.650583 0.586300 -0.146495
v -1.572739 0.145400 -0.153015
v -1.847280 0.778243 -0.074303
v -1.858613 0.490863 -0.153015
v -1.798662 0.354045 -0.142469
v -1.899151 0.506108 -0.113659
v -1.847280 0.778243 0.074303
v -1.572739 0.145400 0.153015
v -1.858613 0.490863 0.153015
v -1.899151 0.506108 0.113659
v -1.798662 0.354045 0.142469
v -0.495037 -0.232556 -1.546310
v -0.087558 0.442358 -0.685078
v -0.495037 -0.232556 -0.685078
v -0.087558 0.442358 -1.546310
v 0.107313 -0.324384 -1.970894
v 0.768695 0.325113 -1.970894
v 0.768695 0.325113 -1.163404
v 0.107313 -0.324384 -1.163404
v 2.167687 0.483481 -1.971586
v 2.167687 0.483481 -1.507544
v 1.126720 0.544562 -1.970894
v 2.174189 0.569291 -1.971559
v 1.346462 0.479177 -1.970984
v 1.519243 0.494525 -1.971227
v 2.174189 0.569291 -1.494231
v 1.126720 0.544562 -1.163404
v 1.519243 0.494525 -1.328817
v 1.346462 0.479177 -1.207726
v 1.899719 0.705458 -1.328817
v 1.899719 0.705458 -1.971227
v 2.143275 0.706483 -1.971559
v 2.143274 0.706483 -1.494231
vn -0.1538 0.9881 -0.0000
vn 0.7229 -0.1818 0.6666
vn 0.9846 -0.1750 -0.0000
vn -0.1507 -0.9886 -0.0000
vn 0.5648 -0.8252 -0.0000
vn -0.0011 0.0013 -1.0000
vn -0.1507 0.2594 -0.9539
vn -0.0000 -0.0000 1.0000
vn -0.0000 -0.0000 -1.0000
vn 0.1343 0.9909 -0.0000
vn -0.4108 -0.9117 -0.0000
vn 0.4823 0.8760 -0.0000
vn -0.1507 0.2594 0.9539
vn -0.0096 0.0890 0.9960
vn -0.0455 0.1665 0.9850
vn -0.1291 0.2363 0.9631
vn -0.1291 0.2363 -0.9631
vn -0.0455 0.1665 -0.9850
vn -0.0096 0.0890 -0.9960
vn 0.6762 0.7367 -0.0000
vn 0.9047 0.4261 -0.0000
vn 0.9986 0.0521 -0.0000
vn -0.1917 -0.1587 -0.9685
vn -0.7160 -0.3599 -0.5982
vn -0.6329 0.2277 -0.7400
vn -0.6329 0.2277 0.7400
vn -0.7160 -0.3599 0.5982
vn -0.1917 -0.1587 0.9685
vn -0.6785 -0.7346 -0.0000
vn -0.8343 -0.5513 -0.0000
vn -0.9823 0.1872 -0.0000
vn -0.8978 0.4404 -0.0000
vn -0.8541 0.2148 -0.4737
vn -0.2310 -0.9730 -0.0000
vn 0.4691 -0.3786 0.7979
vn 0.1357 0.9908 -0.0000
vn 0.4026 -0.4977 0.7682
vn -0.4334 0.3498 -0.8306
vn -0.5226 0.8526 -0.0000
vn 0.3256 -0.9455 -0.0000
vn 0.9971 -0.0756 -0.0000
vn 0.2525 -0.5693 0.7824
vn 0.2852 0.9585 -0.0000
vn -0.0885 0.9961 -0.0000
vn 0.9755 0.2198 -0.0000
vn -0.0006 0.0015 -1.0000
vn -0.0042 1.0000 -0.0000
vn -0.0008 0.0008 -1.0000
vn 0.3495 -0.3509 0.8688
vn -0.4849 0.8746 -0.0000
vt 0.809977 0.505411
vt 0.934755 0.152764
vt 0.989525 0.112927
vt 0.964111 0.393300
vt 0.439063 0.673540
vt 0.581936 0.573801
vt 0.606243 0.869317
vt 0.528156 0.855124
vt 0.129250 0.898383
vt 0.105443 0.913632
vt 0.102695 0.856342
vt 0.110453 0.851373
vt 0.793158 0.665361
vt 0.731013 0.734357
vt 0.654821 0.665503
vt 0.660573 0.545547
vt 0.310935 0.343988
vt 0.451413 0.146930
vt 0.490743 0.195970
vt 0.350264 0.393028
vt 0.310935 0.254974
vt 0.144308 0.163817
vt 0.129203 0.088387
vt 0.304315 0.208191
vt 0.059959 0.780654
vt 0.129709 0.796795
vt 0.129718 0.796800
vt 0.064757 0.802780
vt 0.003888 0.789827
vt 0.002614 0.782542
vt 0.835316 1.000000
vt 0.809977 0.917357
vt 0.857439 0.826939
vt 0.911101 0.801161
vt 0.911112 0.801162
vt 0.904409 0.892180
vt 0.140042 0.722091
vt 0.215083 0.716945
vt 0.188276 0.774057
vt 0.110268 0.764815
vt 0.784964 0.734357
vt 0.799813 0.734357
vt 0.799813 0.749408
vt 0.784964 0.749408
vt 0.656491 0.216564
vt 0.606243 0.171155
vt 0.699432 0.068034
vt 0.749680 0.113443
vt 0.870709 0.064712
vt 0.925479 0.024874
vt 0.874312 0.746395
vt 0.847444 0.765691
vt 0.809977 0.722356
vt 0.820830 0.713315
vt 0.861928 0.807288
vt 0.858270 0.784869
vt 0.081220 0.778054
vt 0.099634 0.772257
vt 0.860526 0.048259
vt 0.912962 0.010119
vt 0.854667 0.033503
vt 0.900728 0.000000
vt 0.132054 0.916329
vt 0.102695 0.935134
vt 0.154818 0.795738
vt 0.126200 0.808368
vt 0.917428 0.790711
vt 0.918240 0.830409
vt 0.744749 0.021368
vt 0.791534 0.063647
vt 0.772653 0.000000
vt 0.809977 0.033729
vt 0.113206 0.851373
vt 0.056262 0.830894
vt 0.000000 0.802694
vt 0.135965 0.336669
vt 0.295919 0.400140
vt 0.809977 0.506606
vt 0.668568 0.378818
vt 0.387420 0.510401
vt 0.528324 0.362779
vt 0.845009 0.713315
vt 0.989525 0.608200
vt 0.098147 0.316581
vt 0.035503 0.270750
vt 0.081664 0.117986
vt 0.000000 0.851373
vt 0.102695 0.851373
vt 0.102695 0.969020
vt 0.000000 0.969020
vt 0.509870 0.003989
vt 0.527463 0.000000
vt 0.567918 0.050444
vt 0.549199 0.053029
vt 0.558383 0.195930
vt 0.563325 0.242356
vt 0.577637 0.287094
vt 0.606263 0.734468
vt 0.784964 0.734357
vt 0.775187 0.785098
vt 0.606275 0.785203
vt 0.748411 0.820660
vt 0.606243 0.820748
vt 0.711887 0.954341
vt 0.606253 0.954407
vt 0.606243 0.938935
vt 0.711878 0.938869
vt 0.084941 0.095163
vt 0.073607 0.075408
vt 0.027151 0.000196
vt 0.045353 0.003200
vt 0.606284 0.887488
vt 0.748452 0.887399
vt 0.011680 0.027296
vt 0.000000 0.000000
vt 0.595519 0.051985
vt 0.606243 0.116211
s 0
f 36/1/1 5/2/1 7/3/1 34/4/1
f 35/5/2 34/6/2 7/7/2 8/8/2
f 14/9/3 18/10/3 12/11/3 11/12/3
f 37/13/4 2/14/4 4/15/4 40/16/4
f 2/17/5 1/18/5 3/19/5 4/20/5
f 37/21/6 38/22/6 1/23/6 2/24/6
f 18/25/7 20/26/7 25/27/7 24/28/7 9/29/7 12/30/7
f 8/31/8 7/32/8 13/33/8 15/34/8 30/35/8 29/36/8
f 5/37/9 6/38/9 23/39/9 25/27/9 20/26/9 19/40/9
f 10/41/10 11/42/10 12/43/10 9/44/10
f 6/45/11 8/46/11 29/47/11 23/48/11
f 7/3/12 5/2/12 19/49/12 13/50/12
f 28/51/13 30/35/13 15/34/13 14/52/13 11/53/13 10/54/13
f 13/33/14 16/55/14 15/34/14
f 16/55/15 17/56/15 15/34/15
f 17/56/16 14/52/16 15/34/16
f 18/25/17 21/57/17 20/26/17
f 21/57/18 22/58/18 20/26/18
f 22/58/19 19/40/19 20/26/19
f 13/50/20 19/49/20 22/59/20 16/60/20
f 16/60/21 22/59/21 21/61/21 17/62/21
f 17/63/22 21/64/22 18/10/22 14/9/22
f 23/39/23 26/65/23 25/27/23
f 26/65/24 27/66/24 25/27/24
f 27/66/25 24/28/25 25/27/25
f 28/51/26 31/67/26 30/35/26
f 31/67/27 32/68/27 30/35/27
f 32/68/28 29/36/28 30/35/28
f 23/48/29 29/47/29 32/69/29 26/70/29
f 26/70/30 32/69/30 31/71/30 27/72/30
f 27/66/31 31/73/31 28/74/31 24/28/31
f 24/28/32 28/74/32 10/75/32 9/29/32
f 6/38/33 5/37/33 36/76/33 33/77/33
f 6/45/34 33/78/34 35/79/34 8/46/34
f 40/80/35 39/81/35 34/6/35 35/5/35
f 38/82/36 36/1/36 34/4/36 39/83/36
f 4/20/37 3/19/37 39/81/37 40/80/37
f 33/77/38 36/76/38 38/22/38 37/21/38
f 33/78/4 37/13/4 40/16/4 35/79/4
f 38/22/39 39/84/39 48/85/39 43/86/39
f 3/87/40 1/88/40 41/89/40 42/90/40
f 41/91/41 44/92/41 47/93/41 42/94/41
f 39/81/42 3/19/42 42/94/42 47/93/42 49/95/42 50/96/42 48/97/42
f 43/98/43 48/99/43 50/100/43 45/101/43
f 45/101/44 50/100/44 49/102/44 46/103/44
f 47/104/45 44/105/45 53/106/45 54/107/45
f 1/23/46 38/22/46 43/86/46 45/108/46 46/109/46 44/110/46 41/111/46
f 52/112/47 51/113/47 54/107/47 53/106/47
f 44/110/48 46/109/48 52/114/48 53/115/48
f 49/95/49 47/93/49 54/116/49 51/117/49
f 46/103/50 49/102/50 51/113/50 52/112/50
