# Blender 4.4.3
# www.blender.org
o shipwheel2
v 3.655000 3.655000 -3.655000
v 3.655000 0.105367 -3.655000
v 3.655000 3.655000 0.826967
v 3.655000 0.105367 0.826967
v -2.111454 3.655000 -3.655000
v -2.111455 0.105368 -3.655000
v -2.111454 3.655000 0.826967
v -2.111455 0.105368 0.826967
v 3.655000 0.869098 -3.655000
v -2.111455 0.869098 0.826967
v 3.655000 0.869098 0.826967
v -2.111455 0.869098 -3.655000
v -2.052320 0.105368 -3.595864
v -2.052320 0.105368 0.767832
v 3.595865 0.105367 -3.595865
v 3.595865 0.869098 -3.595865
v 3.595865 0.869098 0.767832
v 3.595865 0.105367 0.767832
v -2.052320 0.869098 -3.595864
v -2.052320 0.869098 0.767832
v 3.561849 0.736339 0.733815
v 3.561849 0.800087 0.733815
v -2.018304 0.800087 0.733815
v -2.018304 0.736339 0.733815
v 3.595865 0.800087 -3.595865
v 3.595865 0.736339 -3.595865
v 3.595865 0.800087 0.767832
v 3.595865 0.736339 0.767832
v -2.052320 0.736339 -3.595864
v -2.052320 0.800087 -3.595864
v -2.052320 0.736339 0.767832
v -2.052320 0.800087 0.767832
v -2.018304 0.736339 -3.561848
v -2.018304 0.800087 -3.561848
v 3.561849 0.800087 -3.561848
v 3.561849 0.736339 -3.561848
v -2.111454 3.252471 0.826967
v 3.655000 3.252471 -3.655000
v 3.655000 3.252471 0.826967
v -2.111454 3.252471 -3.655000
vn -0.0000 -1.0000 -0.0000
vn -0.0000 -0.0000 -1.0000
vn 1.0000 -0.0000 -0.0000
vn -1.0000 -0.0000 -0.0000
vn -0.0000 -0.0000 1.0000
vn -0.0000 1.0000 -0.0000
vt 0.742310 0.477608
vt 0.742310 0.561797
vt 0.633994 0.561797
vt 0.633994 0.477608
vt 0.991732 0.734576
vt 0.551597 0.734576
vt 0.551597 0.703852
vt 0.991732 0.703852
vt 0.893691 0.642405
vt 0.551597 0.642405
vt 0.551597 0.611681
vt 0.893691 0.611681
vt 0.537896 0.845589
vt 0.014861 0.845589
vt 0.014861 0.824506
vt 0.537896 0.824506
vt 0.893691 0.673129
vt 0.551597 0.673129
vt 0.551597 0.673129
vt 0.991732 0.673129
vt 0.512946 0.917853
vt 0.007957 0.917853
vt 0.013873 0.899787
vt 0.512813 0.899787
vt 0.519171 0.710274
vt 0.005222 0.710274
vt 0.012003 0.692207
vt 0.512389 0.692207
vt 0.014861 0.746405
vt 0.538175 0.746405
vt 0.538035 0.764472
vt 0.021027 0.764472
vt -0.004398 0.728339
vt 0.523155 0.728339
vt 0.516195 0.710274
vt 0.002562 0.710274
vt 0.756480 0.582517
vt 0.756480 0.000000
vt 0.878240 0.000000
vt 0.878240 0.582517
vt 0.007169 0.937328
vt 0.480806 0.937328
vt 0.480806 0.956804
vt 0.007169 0.956804
vt 0.995632 0.996362
vt 0.545589 0.996362
vt 0.545589 0.874602
vt 0.995632 0.874602
vt 0.007169 0.881721
vt 0.496619 0.881721
vt 0.491600 0.899787
vt 0.012189 0.899787
vt 0.007169 0.863655
vt 0.496619 0.863655
vt 0.491600 0.881721
vt 0.012189 0.881721
vt 0.541198 0.863655
vt 0.014861 0.863655
vt 0.021027 0.845589
vt 0.541059 0.845589
vt 0.014861 0.728339
vt 0.538175 0.728339
vt 0.538035 0.746405
vt 0.021027 0.746405
vt 0.486581 0.998971
vt 0.007169 0.998971
vt 0.007169 0.977887
vt 0.486581 0.977887
vt 0.012374 0.803423
vt 0.536820 0.803422
vt 0.536820 0.824506
vt 0.012374 0.824506
vt 0.007957 0.956804
vt 0.512679 0.956804
vt 0.512679 0.977887
vt 0.007957 0.977887
vt 0.545589 0.752842
vt 0.995632 0.752842
vt 0.543654 0.614550
vt 0.046788 0.614550
vt 0.050661 0.603890
vt 0.539780 0.603890
vt -0.002271 0.640247
vt 0.537406 0.640247
vt 0.537323 0.650639
vt 0.001389 0.650639
vt -0.002271 0.629854
vt 0.537406 0.629854
vt 0.537323 0.640247
vt 0.001389 0.640247
vt 0.007169 0.681815
vt 0.486581 0.681815
vt 0.483694 0.692207
vt 0.010057 0.692207
vt 1.000000 -0.000000
vt 1.000000 0.582517
vt 0.878240 0.582517
vt 0.878240 -0.000000
vt 0.528643 0.783947
vt 0.012374 0.783947
vt 0.012374 0.764472
vt 0.528643 0.764472
vt 0.014861 0.783947
vt 0.537736 0.783948
vt 0.537736 0.803423
vt 0.014861 0.803423
vt 0.435252 0.937328
vt 0.007169 0.917853
vt 0.435252 0.917853
vt 0.435382 0.681815
vt 0.010057 0.671423
vt 0.435317 0.671423
vt 0.007169 0.661030
vt 0.486581 0.661030
vt 0.483694 0.671423
vt 0.540526 0.661030
vt -0.002271 0.661030
vt 0.540443 0.650639
vt 0.543654 0.629854
vt 0.046788 0.629854
vt 0.050661 0.619462
vt 0.539780 0.619462
vt 0.378240 0.000000
vt 0.378240 0.594715
vt 0.189120 0.594715
vt 0.189120 0.000000
vt 0.378240 0.462241
vt 0.378240 -0.000000
vt 0.567360 0.000000
vt 0.567360 0.462241
vt 0.756480 0.000000
vt 0.756480 0.462241
vt 0.567360 0.462241
vt 0.567360 0.000000
vt 0.000000 0.594715
vt 0.000000 -0.000000
vt 0.189120 0.000000
vt 0.189120 0.594715
s 0
f 1/1/1 3/2/1 7/3/1 5/4/1
f 39/5/2 37/6/2 7/7/2 3/8/2
f 37/9/3 40/10/3 5/11/3 7/12/3
f 25/13/4 27/14/4 17/15/4 16/16/4
f 38/17/4 39/18/4 3/10/4 1/9/4
f 40/19/5 38/20/5 1/8/5 5/7/5
f 9/21/6 12/22/6 19/23/6 16/24/6
f 12/25/6 10/26/6 20/27/6 19/28/6
f 2/29/1 4/30/1 18/31/1 15/32/1
f 8/33/1 6/34/1 13/35/1 14/36/1
f 18/37/2 14/38/2 31/39/2 28/40/2
f 23/41/2 22/42/2 21/43/2 24/44/2
f 14/45/3 13/46/3 29/47/3 31/48/3
f 6/49/1 2/50/1 15/51/1 13/52/1
f 10/53/6 11/54/6 17/55/6 20/56/6
f 4/57/1 8/58/1 14/59/1 18/60/1
f 11/61/6 9/62/6 16/63/6 17/64/6
f 27/65/2 32/66/2 20/67/2 17/68/2
f 32/69/3 30/70/3 19/71/3 20/72/3
f 30/73/5 25/74/5 16/75/5 19/76/5
f 15/48/4 18/47/4 28/77/4 26/78/4
f 30/79/6 32/80/6 23/81/6 34/82/6
f 27/83/6 25/84/6 35/85/6 22/86/6
f 26/87/1 28/88/1 21/89/1 36/90/1
f 29/91/1 26/92/1 36/93/1 33/94/1
f 13/95/5 15/96/5 26/97/5 29/98/5
f 34/99/3 23/100/3 24/101/3 33/102/3
f 22/103/4 35/104/4 36/105/4 21/106/4
f 35/107/5 34/41/5 33/108/5 36/109/5
f 28/110/1 31/91/1 24/111/1 21/112/1
f 32/113/6 27/114/6 22/115/6 23/111/6
f 25/116/6 30/117/6 34/86/6 35/118/6
f 31/119/1 29/120/1 33/121/1 24/122/1
f 12/123/5 9/124/5 38/125/5 40/126/5
f 9/127/4 11/128/4 39/129/4 38/130/4
f 10/131/3 12/132/3 40/133/3 37/134/3
f 11/135/2 10/136/2 37/137/2 39/138/2
