# Blender 4.4.3
# www.blender.org
o shipwheel2.001
v 3.626041 3.620035 -3.582182
v 3.626040 0.142321 -3.582182
v 3.626041 3.620035 -3.185718
v 3.626040 0.142321 -3.185718
v 3.115954 3.620035 -3.582182
v 3.115954 0.142321 -3.582182
v 3.115954 3.620035 -3.185718
v 3.115954 0.142321 -3.185718
v 3.588755 2.775016 -3.133220
v 3.588755 0.180345 -3.133220
v 3.588755 2.775016 -1.065762
v 3.588755 0.180345 -1.065762
v 3.153240 2.775016 -3.133220
v 3.153240 0.180345 -3.133220
v 3.153240 2.775016 -1.065762
v 3.153240 0.180345 -1.065762
v 3.089077 2.516807 -3.471977
v 3.089077 0.190248 -3.471977
v 3.089077 2.516807 -0.727004
v 3.089077 0.190248 -0.727004
v 2.811767 2.516807 -3.471977
v 2.811767 0.190248 -3.471977
v 2.811767 2.516807 -0.727004
v 2.811767 0.190248 -0.727004
v 2.755416 2.377135 -2.946809
v 2.755416 0.050576 -2.946809
v 2.755416 2.377135 -0.201837
v 2.755416 0.050576 -0.201837
v 2.478105 2.377135 -2.946809
v 2.478105 0.050576 -2.946809
v 2.478105 2.377135 -0.201837
v 2.478105 0.050576 -0.201837
v -0.050910 1.516638 -3.612520
v -0.050910 0.050576 -3.612520
v 2.694062 1.516638 -3.612520
v 2.694062 0.050576 -3.612521
v -0.050910 1.516638 -3.335210
v -0.050910 0.050576 -3.335210
v 2.694062 1.516638 -3.335210
v 2.694062 0.050576 -3.335210
vn -0.0000 1.0000 -0.0000
vn -0.0000 -0.0000 1.0000
vn -1.0000 -0.0000 -0.0000
vn 1.0000 -0.0000 -0.0000
vn -0.0000 -0.0000 -1.0000
vn -0.0000 -1.0000 -0.0000
vt 0.883457 0.484255
vt 0.883457 0.422313
vt 0.931602 0.422313
vt 0.931602 0.484255
vt 0.878049 0.422313
vt 0.878049 0.000000
vt 0.939991 0.000000
vt 0.939991 0.422313
vt 0.988136 0.000000
vt 0.988136 0.422313
vt 0.939991 0.000000
vt 0.988136 0.844626
vt 0.939991 0.844626
vt 0.878049 0.000000
vt 0.878049 0.422313
vt 0.816107 0.422313
vt 0.816107 0.000000
vt 0.931602 0.484255
vt 0.931602 0.546197
vt 0.883457 0.546197
vt 0.883457 0.484255
vt 0.158659 0.917727
vt 0.105773 0.917727
vt 0.105773 0.666667
vt 0.158659 0.666667
vt 0.000000 0.981748
vt 0.000000 0.666667
vt 0.052886 0.666667
vt 0.052886 0.981748
vt 0.816107 0.000000
vt 0.816107 0.315082
vt 0.565048 0.315082
vt 0.565048 0.000000
vt 0.816107 0.315082
vt 0.816107 0.630163
vt 0.565047 0.630163
vt 0.565047 0.315082
vt 0.105773 0.666667
vt 0.105773 0.981748
vt 0.052886 0.981748
vt 0.052886 0.666667
vt 0.211546 0.917727
vt 0.158659 0.917727
vt 0.158659 0.666667
vt 0.211546 0.666667
vt 0.245221 1.000000
vt 0.211546 1.000000
vt 0.245221 0.666667
vt 0.447271 0.666667
vt 0.447271 0.949190
vt 0.413596 0.949190
vt 0.413596 0.666667
vt 0.000000 0.000000
vt 0.282524 0.000000
vt 0.282524 0.333333
vt 0.000000 0.333333
vt 0.000000 0.333333
vt 0.282524 0.333333
vt 0.282524 0.666667
vt 0.000000 0.666667
vt 0.480945 0.666667
vt 0.480946 0.949190
vt 0.346246 1.000000
vt 0.312571 1.000000
vt 0.312571 0.666667
vt 0.346246 0.666667
vt 0.278896 1.000000
vt 0.245221 1.000000
vt 0.245221 0.666667
vt 0.278896 0.666667
vt 0.480946 0.666667
vt 0.514621 0.666667
vt 0.514620 0.949190
vt 0.282524 0.000000
vt 0.565048 0.000000
vt 0.565047 0.333333
vt 0.282524 0.333333
vt 0.282524 0.333333
vt 0.565047 0.333333
vt 0.565047 0.666667
vt 0.282524 0.666667
vt 0.548295 0.666667
vt 0.548295 0.949190
vt 0.514621 0.949190
vt 0.312571 0.666667
vt 0.312571 1.000000
vt 0.278896 1.000000
vt 0.346246 0.666667
vt 0.379921 0.666667
vt 0.379921 1.000000
vt 0.346246 1.000000
vt 0.849782 0.422313
vt 0.849782 0.600343
vt 0.816107 0.600343
vt 0.816107 0.422313
vt 0.743078 0.963496
vt 0.565048 0.963496
vt 0.565048 0.630163
vt 0.743078 0.630163
vt 0.743077 0.630163
vt 0.921107 0.630163
vt 0.921107 0.963496
vt 0.743077 0.963496
vt 0.883457 0.422313
vt 0.883457 0.600343
vt 0.849782 0.600343
vt 0.849782 0.422313
vt 0.379921 0.666667
vt 0.413596 0.666667
vt 0.413596 1.000000
vt 0.379921 1.000000
s 0
f 1/1/1 5/2/1 7/3/1 3/4/1
f 4/5/2 3/6/2 7/7/2 8/8/2
f 8/9/3 7/10/3 5/8/3 6/11/3
f 2/10/4 1/12/4 3/13/4 4/8/4
f 6/14/5 5/15/5 1/16/5 2/17/5
f 6/18/6 2/19/6 4/20/6 8/21/6
f 9/22/1 13/23/1 15/24/1 11/25/1
f 12/26/2 11/27/2 15/28/2 16/29/2
f 16/30/3 15/31/3 13/32/3 14/33/3
f 10/34/4 9/35/4 11/36/4 12/37/4
f 14/38/5 13/39/5 9/40/5 10/41/5
f 14/42/6 10/43/6 12/44/6 16/45/6
f 17/46/1 21/47/1 23/45/1 19/48/1
f 20/49/2 19/50/2 23/51/2 24/52/2
f 24/53/3 23/54/3 21/55/3 22/56/3
f 18/57/4 17/58/4 19/59/4 20/60/4
f 22/61/5 21/62/5 17/50/5 18/49/5
f 22/63/6 18/64/6 20/65/6 24/66/6
f 25/67/1 29/68/1 31/69/1 27/70/1
f 28/62/2 27/71/2 31/72/2 32/73/2
f 32/74/3 31/75/3 29/76/3 30/77/3
f 26/78/4 25/79/4 27/80/4 28/81/4
f 30/82/5 29/83/5 25/84/5 26/72/5
f 30/70/6 26/85/6 28/86/6 32/87/6
f 33/88/1 37/89/1 39/90/1 35/91/1
f 36/92/4 35/93/4 39/94/4 40/95/4
f 40/96/2 39/97/2 37/98/2 38/99/2
f 34/100/5 33/101/5 35/102/5 36/103/5
f 38/104/3 37/105/3 33/106/3 34/107/3
f 38/108/6 34/109/6 36/110/6 40/111/6
